<?xml version="1.0" encoding="UTF-8"?><!DOCTYPE svg PUBLIC "-//W3C//DTD SVG 1.1//EN" "http://www.w3.org/Graphics/SVG/1.1/DTD/svg11.dtd"><svg xmlns="http://www.w3.org/2000/svg" xmlns:xlink="http://www.w3.org/1999/xlink"><symbol id="chat" viewBox="0 0 512 512"><path d="M486.4 25.6H153.6c-14.14 0-25.6 11.46-25.6 25.6V256c0 14.14 11.46 25.6 25.6 25.6h89.6l76.8 76.8 76.8-76.8h89.6c14.14 0 25.6-11.46 25.6-25.6V51.2c0-14.14-11.46-25.6-25.6-25.6zm0 230.4H386.193L320 322.193 253.807 256H153.6V51.2h332.8V256z"/><path d="M358.4 356.198V384H258.193L192 450.193 125.807 384H25.6V179.2h76.8v-25.6H25.6C11.46 153.6 0 165.06 0 179.2V384c0 14.14 11.46 25.6 25.6 25.6h89.6l76.8 76.8 76.8-76.8h89.6c14.14 0 25.6-11.46 25.6-25.6v-53.402l-25.6 25.6z"/></symbol><symbol id="checkbox" viewBox="0 0 44 44"><path stroke="inherit" d="M11 23l10 10 13-22" stroke-dasharray="47" stroke-dashoffset="inherit" stroke-linecap="round" stroke-linejoin="round" stroke-width="inherit" fill="none"/></symbol><symbol id="email" viewBox="0 0 512 512"><path d="M499.2 51.2H12.8C5.734 51.2 0 56.934 0 64v384c0 7.066 5.734 12.8 12.8 12.8h486.4c7.066 0 12.8-5.734 12.8-12.8V64c0-7.066-5.734-12.8-12.8-12.8zm-12.8 384H25.6V76.8h460.8v358.4z"/><path d="M458.325 107.622c-4.19-5.726-12.211-6.946-17.903-2.748L256 240.128 71.578 104.875c-5.726-4.173-13.722-2.978-17.903 2.748-4.173 5.7-2.953 13.722 2.748 17.903l192 140.8c2.261 1.647 4.915 2.475 7.578 2.475s5.316-.828 7.578-2.475l192-140.8c5.699-4.173 6.928-12.203 2.746-17.904z"/></symbol><symbol id="user" viewBox="0 0 512 512"><path stroke="inherit" d="M256 0c-84.83 0-153.6 85.965-153.6 192S171.17 384 256 384s153.6-85.965 153.6-192S340.83 0 256 0zm0 358.4c-70.579 0-128-74.65-128-166.4S185.421 25.6 256 25.6 384 100.25 384 192s-57.421 166.4-128 166.4z"/><path stroke="inherit" d="M367.812 361.762c-6.869 6.682-14.182 12.689-21.82 18.099 24.388 11.332 45.781 20.753 64.051 28.732 67.797 29.585 76.356 35.439 76.356 52.207 0 11.597-11.418 25.6-25.6 25.6H51.2c-14.182 0-25.6-14.003-25.6-25.6 0-16.768 8.559-22.622 76.348-52.207 18.278-7.979 39.671-17.399 64.051-28.732-7.637-5.41-14.95-11.418-21.82-18.099C37.598 410.539 0 417.075 0 460.8 0 486.4 22.921 512 51.2 512h409.6c28.279 0 51.2-25.6 51.2-51.2 0-43.725-37.598-50.261-144.188-99.038z"/></symbol></svg>